<?xml version="1.0" encoding="utf-8"?>
<!-- Generator: Adobe Illustrator 22.1.0, SVG Export Plug-In . SVG Version: 6.00 Build 0)  -->
<svg version="1.1" xmlns="http://www.w3.org/2000/svg" xmlns:xlink="http://www.w3.org/1999/xlink" x="0px" y="0px"
	 viewBox="0 0 160.8 17.2" style="enable-background:new 0 0 160.8 17.2;" xml:space="preserve">
<style type="text/css">
	.st0{fill:#00024A;}
	.st1{fill:#00D2CF;}
	.st2{fill:#FFFFFF;}
	.st3{fill:#FF007B;}
	.st4{fill:#F7F18D;}
</style>
<g id="BACKGROUND">
</g>
<g id="OBJECTS">
	<g>
		<path class="st1" d="M0,16.9V0.3h8.5c2.2,0,3.8,0.4,4.9,1.2c1.1,0.8,1.6,1.8,1.6,3.1c0,0.8-0.2,1.6-0.7,2.2
			c-0.4,0.6-1.1,1.1-1.9,1.5c-0.8,0.4-1.8,0.6-2.9,0.6l0.5-1.1c1.2,0,2.2,0.2,3,0.5c0.9,0.4,1.5,0.9,2,1.5c0.5,0.7,0.7,1.5,0.7,2.4
			c0,1.4-0.6,2.5-1.7,3.3c-1.2,0.8-2.8,1.2-5.1,1.2H0z M4.6,13.5h3.9c0.8,0,1.4-0.1,1.8-0.4c0.4-0.3,0.6-0.7,0.6-1.3s-0.2-1-0.6-1.3
			c-0.4-0.3-1-0.4-1.8-0.4H4.3V6.9h3.5c0.8,0,1.4-0.1,1.8-0.4c0.4-0.3,0.6-0.7,0.6-1.2S10,4.4,9.6,4.1s-1-0.4-1.8-0.4H4.6V13.5z"/>
		<path class="st1" d="M26.5,17.2c-1.3,0-2.5-0.2-3.7-0.6s-2.1-1-2.9-1.8C19.1,14,18.4,13.1,18,12c-0.5-1-0.7-2.2-0.7-3.4
			s0.2-2.4,0.7-3.4c0.5-1,1.1-1.9,1.9-2.7s1.8-1.4,2.9-1.8S25.2,0,26.5,0c1.3,0,2.6,0.2,3.7,0.6c1.1,0.4,2.1,1,2.9,1.8
			c0.8,0.8,1.5,1.7,1.9,2.7c0.5,1,0.7,2.2,0.7,3.4S35.4,11,35,12c-0.5,1-1.1,2-1.9,2.7c-0.8,0.8-1.8,1.4-2.9,1.8
			C29,17,27.8,17.2,26.5,17.2z M26.5,13.3c0.6,0,1.2-0.1,1.8-0.3s1-0.5,1.4-1s0.7-0.9,0.9-1.5c0.2-0.6,0.3-1.2,0.3-1.9
			c0-0.7-0.1-1.4-0.3-1.9c-0.2-0.6-0.5-1.1-0.9-1.5s-0.9-0.7-1.4-1s-1.1-0.3-1.8-0.3c-0.6,0-1.2,0.1-1.8,0.3s-1,0.5-1.4,1
			s-0.7,0.9-0.9,1.5C22.1,7.2,22,7.9,22,8.6c0,0.7,0.1,1.4,0.3,1.9c0.2,0.6,0.5,1.1,0.9,1.5s0.9,0.7,1.4,1S25.9,13.3,26.5,13.3z"/>
		<path class="st1" d="M46.5,17.2c-1.3,0-2.5-0.2-3.7-0.6s-2.1-1-2.9-1.8C39.1,14,38.4,13.1,38,12c-0.5-1-0.7-2.2-0.7-3.4
			s0.2-2.4,0.7-3.4c0.5-1,1.1-1.9,1.9-2.7s1.8-1.4,2.9-1.8S45.1,0,46.5,0c1.3,0,2.6,0.2,3.7,0.6c1.1,0.4,2.1,1,2.9,1.8
			c0.8,0.8,1.5,1.7,1.9,2.7c0.5,1,0.7,2.2,0.7,3.4S55.4,11,54.9,12c-0.5,1-1.1,2-1.9,2.7c-0.8,0.8-1.8,1.4-2.9,1.8
			C49,17,47.8,17.2,46.5,17.2z M46.5,13.3c0.6,0,1.2-0.1,1.8-0.3s1-0.5,1.4-1s0.7-0.9,0.9-1.5c0.2-0.6,0.3-1.2,0.3-1.9
			c0-0.7-0.1-1.4-0.3-1.9c-0.2-0.6-0.5-1.1-0.9-1.5s-0.9-0.7-1.4-1s-1.1-0.3-1.8-0.3c-0.6,0-1.2,0.1-1.8,0.3s-1,0.5-1.4,1
			s-0.7,0.9-0.9,1.5C42.1,7.2,42,7.9,42,8.6c0,0.7,0.1,1.4,0.3,1.9c0.2,0.6,0.5,1.1,0.9,1.5s0.9,0.7,1.4,1S45.8,13.3,46.5,13.3z"/>
		<path class="st1" d="M58.1,16.9V0.3h4.6v16.5H58.1z M62.3,13.2L62,8l7.1-7.6h5.1L67.2,8l-2.6,2.7L62.3,13.2z M69.2,16.9L63.8,10
			l3-3.3l7.8,10.1H69.2z"/>
		<path class="st2" d="M78.6,16.9h-1.7V0.3h1.7V16.9z M89.1,9.2H78.4V7.7h10.7V9.2z M89,0.3h1.7v16.5H89V0.3z"/>
		<path class="st2" d="M103.3,17c-1.2,0-2.4-0.2-3.5-0.6c-1.1-0.4-2-1-2.8-1.8c-0.8-0.8-1.4-1.7-1.8-2.7c-0.4-1-0.6-2.1-0.6-3.3
			s0.2-2.3,0.6-3.3c0.4-1,1-1.9,1.8-2.7c0.8-0.8,1.7-1.4,2.8-1.8c1.1-0.4,2.2-0.6,3.5-0.6c1.2,0,2.4,0.2,3.4,0.6
			c1.1,0.4,2,1,2.8,1.8c0.8,0.8,1.4,1.6,1.8,2.7c0.4,1,0.6,2.1,0.6,3.4s-0.2,2.3-0.6,3.4c-0.4,1-1,1.9-1.8,2.7
			c-0.8,0.8-1.7,1.3-2.8,1.8C105.7,16.8,104.5,17,103.3,17z M103.3,15.4c1,0,1.9-0.2,2.8-0.5c0.8-0.3,1.6-0.8,2.2-1.4
			c0.6-0.6,1.1-1.3,1.5-2.2c0.3-0.8,0.5-1.7,0.5-2.7s-0.2-1.9-0.5-2.7c-0.3-0.8-0.8-1.5-1.5-2.2c-0.6-0.6-1.4-1.1-2.2-1.4
			c-0.8-0.3-1.8-0.5-2.8-0.5c-1,0-1.9,0.2-2.8,0.5c-0.8,0.3-1.6,0.8-2.2,1.4c-0.6,0.6-1.1,1.3-1.5,2.2c-0.4,0.8-0.5,1.7-0.5,2.7
			c0,1,0.2,1.9,0.5,2.7c0.4,0.8,0.8,1.6,1.5,2.2c0.6,0.6,1.4,1.1,2.2,1.4C101.4,15.3,102.3,15.4,103.3,15.4z"/>
		<path class="st2" d="M122.5,17c-2.1,0-3.8-0.6-5-1.8s-1.8-3-1.8-5.4V0.3h1.7v9.4c0,2,0.4,3.4,1.3,4.3c0.9,0.9,2.1,1.4,3.7,1.4
			c1.6,0,2.9-0.5,3.8-1.4c0.9-0.9,1.3-2.4,1.3-4.3V0.3h1.7v9.5c0,2.4-0.6,4.2-1.8,5.4C126.3,16.4,124.6,17,122.5,17z"/>
		<path class="st2" d="M139.1,17c-1.2,0-2.4-0.2-3.5-0.6s-2-0.9-2.6-1.5l0.7-1.3c0.6,0.6,1.4,1,2.3,1.4s2,0.6,3.1,0.6
			c1,0,1.9-0.1,2.5-0.4s1.1-0.6,1.4-1s0.5-0.9,0.5-1.5c0-0.6-0.2-1.2-0.6-1.6s-0.9-0.7-1.5-0.9c-0.6-0.2-1.3-0.4-2-0.6
			c-0.7-0.2-1.4-0.4-2.2-0.6c-0.7-0.2-1.4-0.5-2-0.8c-0.6-0.3-1.1-0.8-1.5-1.3s-0.6-1.3-0.6-2.1c0-0.8,0.2-1.6,0.6-2.3
			c0.4-0.7,1.1-1.2,2-1.7c0.9-0.4,2-0.6,3.4-0.6c0.9,0,1.8,0.1,2.8,0.4c0.9,0.3,1.7,0.6,2.4,1.1L144,3c-0.7-0.5-1.5-0.8-2.3-1
			s-1.6-0.3-2.3-0.3c-1,0-1.8,0.1-2.5,0.4s-1.1,0.6-1.4,1.1s-0.5,1-0.5,1.5c0,0.6,0.2,1.2,0.6,1.6c0.4,0.4,0.9,0.7,1.5,0.9
			c0.6,0.2,1.3,0.4,2,0.6c0.7,0.2,1.4,0.4,2.2,0.6c0.7,0.2,1.4,0.5,2,0.8c0.6,0.3,1.1,0.8,1.5,1.3c0.4,0.5,0.6,1.2,0.6,2.1
			c0,0.8-0.2,1.5-0.7,2.2s-1.1,1.2-2,1.7C141.7,16.8,140.5,17,139.1,17z"/>
		<path class="st2" d="M150.8,15.3h9.9v1.5h-11.7V0.3h11.3v1.5h-9.6V15.3z M150.6,7.7h8.7v1.5h-8.7V7.7z"/>
	</g>
</g>
</svg>
